<?xml version="1.0" encoding="UTF-8" standalone="no"?>
<!-- Created with Inkscape (http://www.inkscape.org/) -->

<svg
   width="210mm"
   height="297mm"
   viewBox="0 0 210 297"
   version="1.1"
   id="svg1"
   xmlns="http://www.w3.org/2000/svg"
   xmlns:svg="http://www.w3.org/2000/svg">
  <defs
     id="defs1" />
  <g
     id="layer1">
    <path
       style="opacity:1;fill:none;fill-opacity:1;stroke:#000300;stroke-width:1.26;stroke-linecap:square;stroke-linejoin:round;stroke-dasharray:none;stroke-opacity:1;paint-order:normal"
       d="m 74.844009,39.63789 c 0.01102,-0.143318 0.02205,-0.28663 0.06339,-0.556731 0.04134,-0.2701 0.112998,-0.666967 0.239779,-1.204409 0.126782,-0.537441 0.308679,-1.215422 0.471289,-1.794204 0.16261,-0.578781 0.305923,-1.058328 0.465777,-1.535134 0.159854,-0.476805 0.33624,-0.95084 0.531924,-1.452452 0.195684,-0.501612 0.410653,-1.030768 0.664215,-1.653648 0.253562,-0.622881 0.5457,-1.339447 0.870921,-2.078082 0.32522,-0.738636 0.683503,-1.499298 1.008723,-2.180055 0.32522,-0.680757 0.617358,-1.281569 0.93431,-1.89618 0.316952,-0.614612 0.658699,-1.242984 1.047311,-1.918231 0.388611,-0.675246 0.824062,-1.397323 1.331186,-2.160764 0.507123,-0.763441 1.085888,-1.5682 1.626084,-2.287542 0.540196,-0.719342 1.041792,-1.353228 1.4745,-1.879642 0.432708,-0.526415 0.796502,-0.94533 1.322919,-1.510333 0.526418,-0.565003 1.215422,-1.276056 1.573711,-1.615054 0.358289,-0.338999 0.385853,-0.305921 0.319704,-0.217726 -0.06615,0.08819 -0.225997,0.231508 -0.424437,0.463021 -0.19844,0.231514 -0.435459,0.551213 -0.647679,0.879189 -0.212219,0.327977 -0.399628,0.664211 -0.551214,0.967382 -0.151585,0.303171 -0.267338,0.573261 -0.366557,0.832334 -0.09922,0.259074 -0.181901,0.507117 -0.281121,0.848874 -0.09922,0.341758 -0.214972,0.77721 -0.316948,1.262285 -0.101975,0.485075 -0.190168,1.019742 -0.256315,1.535134 -0.06615,0.515391 -0.110242,1.011475 -0.129534,1.482768 -0.01929,0.471294 -0.01378,0.917769 4e-6,1.358745 0.01378,0.440976 0.03583,0.876429 0.06891,1.303625 0.03307,0.427196 0.07717,0.846111 0.157098,1.444187 0.07993,0.598077 0.19568,1.375274 0.341754,2.171789 0.146074,0.796515 0.322459,1.612297 0.51263,2.433615 0.190172,0.821319 0.394117,1.648126 0.622874,2.513543 0.228757,0.865418 0.482311,1.769391 0.73036,2.593466 0.24805,0.824075 0.490579,1.5682 0.694531,2.113907 0.203951,0.545706 0.369312,0.892965 0.534677,1.24023"
       id="path63" />
    <path
       style="display:inline;opacity:1;fill:none;fill-opacity:1;stroke:#000300;stroke-width:1.26;stroke-linecap:square;stroke-linejoin:round;stroke-dasharray:none;stroke-opacity:1;paint-order:normal"
       d="m 90.293668,39.265235 c -0.01949,-0.03898 -0.03897,-0.07795 -0.09354,-0.183194 -0.05457,-0.10524 -0.144213,-0.276733 -0.218269,-0.434589 -0.07406,-0.157857 -0.132521,-0.30207 -0.204629,-0.475519 -0.07211,-0.173449 -0.157855,-0.376125 -0.2514,-0.625579 -0.09355,-0.249454 -0.194883,-0.545672 -0.311815,-0.908161 -0.116931,-0.362488 -0.24945,-0.791224 -0.352739,-1.140069 -0.103289,-0.348846 -0.177344,-0.617781 -0.257247,-0.900365 -0.0799,-0.282584 -0.165651,-0.578804 -0.298173,-1.075764 -0.132523,-0.49696 -0.311813,-1.194632 -0.495006,-1.941046 -0.183192,-0.746413 -0.370278,-1.541526 -0.528135,-2.280143 -0.157857,-0.738617 -0.286478,-1.420697 -0.395615,-2.091105 -0.109136,-0.670408 -0.198781,-1.329102 -0.265042,-1.974174 -0.06626,-0.645073 -0.109134,-1.276485 -0.126673,-1.866989 -0.01754,-0.590504 -0.0097,-1.140066 0.0058,-1.586354 0.01559,-0.446287 0.03898,-0.789276 0.08185,-1.163457 0.04287,-0.374181 0.105238,-0.779533 0.185141,-1.180997 0.0799,-0.401465 0.177343,-0.799022 0.290377,-1.186845 0.113034,-0.387822 0.241655,-0.76589 0.383922,-1.145917 0.142267,-0.380028 0.298171,-0.761993 0.522291,-1.167356 0.224119,-0.405362 0.516439,-0.834099 0.791228,-1.210229 0.274789,-0.37613 0.53203,-0.699631 0.799024,-1.009499 0.266994,-0.309869 0.543725,-0.606087 0.779536,-0.857489 0.235811,-0.251402 0.430692,-0.457975 0.574908,-0.611936 0.144216,-0.15396 0.237757,-0.255296 0.294273,-0.339098 0.05652,-0.0838 0.076,-0.150061 0.07795,-0.212423 0.0019,-0.06236 -0.01364,-0.120827 -0.05067,-0.171497 -0.03703,-0.05067 -0.09549,-0.09354 -0.15006,-0.114981 -0.05457,-0.02144 -0.105238,-0.02144 -0.167602,-0.01169 -0.06236,0.0097 -0.136419,0.02923 -0.249452,0.0838 -0.113034,0.05457 -0.265039,0.144211 -0.444334,0.259194 -0.179296,0.114982 -0.385869,0.255296 -0.633375,0.434592 -0.247506,0.179295 -0.535927,0.397561 -0.83995,0.650913 -0.304022,0.253352 -0.623625,0.541775 -1.073814,0.991963 -0.450188,0.450189 -1.03093,1.062112 -1.547378,1.625332 -0.516447,0.563221 -0.968568,1.077704 -1.520097,1.761756 -0.551528,0.684052 -1.202428,1.537626 -1.681845,2.192441 -0.479418,0.654814 -0.787329,1.110834 -1.142022,1.66626 -0.354693,0.555426 -0.756146,1.210224 -1.157611,1.905967 -0.401465,0.695743 -0.802918,1.43239 -1.198537,2.192446 -0.395618,0.760055 -0.785378,1.543472 -1.179048,2.381483 -0.39367,0.838011 -0.791225,1.730562 -1.15761,2.595855 -0.366385,0.865293 -0.701579,1.703279 -0.966624,2.391225 -0.265044,0.687946 -0.459924,1.225814 -0.68989,1.915713 -0.229967,0.689898 -0.495004,1.531778 -0.691838,2.256754 -0.196835,0.724976 -0.325455,1.333001 -0.405358,1.746157 -0.0799,0.413156 -0.111085,0.631421 -0.142269,0.849693"
       id="path62" />
    <g
       id="g52">
      <path
         id="path26"
         style="opacity:1;fill:none;stroke:#000000;stroke-width:0.659657;stroke-linecap:round;stroke-linejoin:round"
         d="m 28.380839,39.028968 c 1.686783,-1.887736 4.375653,-2.458994 8.056101,-0.269519 5.934384,-4.729535 10.526245,0.763971 10.7809,6.643152 v 0 c 0.25465,5.879179 -4.277649,9.703662 -10.062,9.954213 -3.422836,0.148256 -6.517111,-0.988149 -8.525897,-3.158934" />
      <path
         style="opacity:1;fill:none;stroke:#000000;stroke-width:0.659657;stroke-linecap:round;stroke-linejoin:round"
         d="M 30.807791,46.679169 C 30.40918,52.550348 25.480884,55.848864 19.7044,55.456688 13.927915,55.064506 9.490679,51.130134 9.8892889,45.258954 10.2879,39.387775 14.327111,33.961847 20.829705,38.881918 c 6.422079,-4.042579 10.376696,1.926068 9.978086,7.797251 z"
         id="path29" />
      <path
         style="opacity:1;fill:none;fill-opacity:1;stroke:#000000;stroke-width:0.659657;stroke-linecap:round;stroke-linejoin:round;stroke-dasharray:none;stroke-opacity:1"
         d="m 20.794507,38.574405 c 0.22287,-1.335685 0.480617,-2.755309 1.33345,-5.200147 0.848318,-2.431896 2.396046,-6.208397 4.13642,-9.49137 1.853292,-3.495975 3.706755,-6.079387 5.661994,-8.330449 1.005299,-1.157399 1.886452,-2.112291 2.912623,-3.058926 0.984016,-0.907748 2.631347,-1.938598 2.418941,-1.686523 -0.472051,0.560205 -2.820144,2.703677 -3.694102,4.869814 -0.467796,1.159444 -0.826177,2.473773 -1.002883,3.964998 -0.167219,1.457996 -0.154831,2.961396 -0.005,4.499902 0.136773,1.404944 0.352807,2.651151 0.555724,3.658135 0.201116,0.998044 0.543041,2.507115 1.042972,4.367142 6.6e-4,0.0023 0.01837,0.06882 0.01896,0.07101 0.472598,1.771141 0.725694,2.711989 1.056868,3.701668 0.339096,1.103576 0.814167,2.055378 1.192197,2.807388"
         id="path30" />
      <path
         style="opacity:0.51312;fill:none;fill-opacity:1;stroke:none;stroke-width:2;stroke-linecap:square;stroke-linejoin:round;stroke-dasharray:none;stroke-opacity:1;paint-order:normal"
         d="m 39.947368,140.68421 c 0.578946,-1.73684 1.157892,-3.47368 1.794741,-4.86317 0.636849,-1.38948 1.331576,-2.43157 2.084216,-3.41579 0.75264,-0.98422 1.563152,-1.91052 2.72106,-2.60526 1.157908,-0.69474 2.663141,-1.15789 3.994732,-1.44736 1.33159,-0.28948 2.48946,-0.40526 3.531575,-0.28947 1.042116,0.11579 1.968411,0.46315 2.952634,1.04211 0.984224,0.57896 2.026303,1.38946 3.068419,2.2 1.042116,0.81053 2.084201,1.62104 3.126307,2.43157"
         id="path37"
         transform="matrix(0.3298282,0,0,0.3298282,-1.4641073,-2.9540684)" />
      <path
         style="opacity:1;fill:#000000;fill-opacity:1;stroke:none;stroke-width:0.659657;stroke-linecap:square;stroke-linejoin:round;stroke-dasharray:none;stroke-opacity:1;paint-order:normal"
         d="m 22.192147,39.983653 c -0.03752,-0.05603 0.172243,-0.290309 0.61986,-0.596847 0.421061,-0.288354 1.167612,-0.702119 2.097087,-0.755337 0,0 1e-6,0 1e-6,0 0.687142,-0.02615 1.419835,0.209091 2.029864,0.710599 0.03001,0.02467 0.05948,0.0498 0.08842,0.07538 0.661637,0.587817 1.105727,1.329746 1.420374,1.92592 0.720768,1.353216 1.06263,2.307007 0.954696,2.36696 -0.107939,0.05996 -0.65738,-0.824215 -1.451838,-2.078013 -0.350941,-0.549403 -0.792842,-1.232652 -1.357283,-1.719705 -0.0236,-0.02049 -0.04759,-0.04066 -0.07196,-0.0605 -0.494828,-0.403096 -1.068209,-0.614899 -1.600474,-0.617187 0,0 -2e-6,0 -2e-6,0 -0.752375,-0.01966 -1.490937,0.287284 -1.930996,0.474562 -0.475467,0.202351 -0.760229,0.330205 -0.797749,0.274174 z"
         id="path43" />
      <path
         style="opacity:1;fill:#000000;fill-opacity:1;stroke:none;stroke-width:0.659657;stroke-linecap:square;stroke-linejoin:round;stroke-dasharray:none;stroke-opacity:1;paint-order:normal"
         d="m 38.057049,39.920451 c -0.04257,-0.05229 0.144439,-0.305097 0.561539,-0.652017 0.392354,-0.326339 1.097094,-0.807882 2.017566,-0.947491 0,0 3e-6,0 3e-6,0 0.681712,-0.09009 1.43314,0.07585 2.087252,0.518328 0.0322,0.02177 0.06386,0.04404 0.09506,0.06681 0.713537,0.523595 1.224843,1.220905 1.593684,1.785162 0.843746,1.280151 1.273007,2.197932 1.171133,2.267681 -0.101882,0.06975 -0.731334,-0.75936 -1.639183,-1.933661 -0.400616,-0.514304 -0.904273,-1.153396 -1.511649,-1.585726 -0.02543,-0.0182 -0.05117,-0.03604 -0.07728,-0.05354 -0.530238,-0.355225 -1.120868,-0.512669 -1.651031,-0.465341 0,0 0,0 0,0 -0.750933,0.05054 -1.457672,0.424983 -1.878361,0.652459 -0.45454,0.245781 -0.726147,0.39962 -0.768728,0.347329 z"
         id="path50" />
      <ellipse
         style="opacity:1;fill:#000000;fill-opacity:1;stroke:none;stroke-width:0.674478;stroke-linecap:square;stroke-linejoin:round;stroke-dasharray:none;stroke-opacity:1;paint-order:normal"
         id="path52"
         cx="34.348145"
         cy="-15.666405"
         rx="0.25807604"
         ry="0.88011444"
         transform="matrix(0.04530097,0.99897338,-0.96874652,-0.24805279,0,0)" />
    </g>
    <path
       style="fill:none;fill-opacity:1;stroke:#018c00;stroke-width:0.659657;stroke-linecap:round;stroke-linejoin:round;stroke-dasharray:none;stroke-opacity:1"
       d="m 74.488955,39.509848 c 0.22287,-1.335685 0.480617,-2.755309 1.33345,-5.200147 0.848318,-2.431896 2.396046,-6.208397 4.13642,-9.49137 1.853292,-3.495975 3.706755,-6.079387 5.661994,-8.330449 1.005299,-1.157399 1.886452,-2.112291 2.912623,-3.058926 0.984016,-0.907748 2.631347,-1.938598 2.418941,-1.686523 -0.472051,0.560205 -2.820144,2.703677 -3.694102,4.869814 -0.467796,1.159444 -0.826177,2.473773 -1.002883,3.964998 -0.167219,1.457996 -0.154831,2.961396 -0.005,4.499902 0.136773,1.404944 0.352807,2.651151 0.555724,3.658135 0.201116,0.998044 0.543041,2.507115 1.042972,4.367142 6.6e-4,0.0023 0.01837,0.06882 0.01896,0.07101 0.472598,1.771141 0.725694,2.711989 1.056868,3.701668 0.339096,1.103576 0.814167,2.055378 1.192197,2.807388"
       id="path55" />
    <path
       id="path53"
       style="display:inline;fill:#d20005;fill-opacity:1;stroke:#000000;stroke-width:0.659657;stroke-linecap:round;stroke-linejoin:round"
       d="m 82.075287,39.964411 c 1.686783,-1.887736 4.375653,-2.458994 8.056101,-0.269519 5.934384,-4.729535 10.526242,0.763971 10.780902,6.643152 v 0 c 0.25465,5.879179 -4.277651,9.703662 -10.062002,9.954213 -3.422836,0.148256 -6.517111,-0.988149 -8.525897,-3.158934" />
    <path
       style="display:inline;fill:#d20005;fill-opacity:1;stroke:#000000;stroke-width:0.659657;stroke-linecap:round;stroke-linejoin:round;stroke-opacity:1"
       d="m 84.502239,47.614612 c -0.398611,5.871179 -5.326907,9.169695 -11.103391,8.777519 -5.776485,-0.392182 -10.213721,-4.326554 -9.815111,-10.197734 0.398611,-5.871179 4.437822,-11.297107 10.940416,-6.377036 6.422079,-4.042579 10.376696,1.926068 9.978086,7.797251 z"
       id="path54" />
    <path
       style="display:inline;fill:#ffffff;fill-opacity:1;stroke:none;stroke-width:0.659657;stroke-linecap:square;stroke-linejoin:round;stroke-dasharray:none;stroke-opacity:1;paint-order:normal"
       d="m 75.886595,40.919096 c -0.03752,-0.05603 0.172243,-0.290309 0.61986,-0.596847 0.421061,-0.288354 1.167612,-0.702119 2.097087,-0.755337 0,0 10e-7,0 10e-7,0 0.687142,-0.02615 1.419835,0.209091 2.029864,0.710599 0.03001,0.02467 0.05948,0.0498 0.08842,0.07538 0.661637,0.587817 1.105727,1.329746 1.420374,1.92592 0.720768,1.353216 1.06263,2.307007 0.954696,2.36696 -0.107939,0.05996 -0.65738,-0.824215 -1.451838,-2.078013 -0.350941,-0.549403 -0.792842,-1.232652 -1.357283,-1.719705 -0.0236,-0.02049 -0.04759,-0.04066 -0.07196,-0.0605 -0.494828,-0.403096 -1.068209,-0.614899 -1.600474,-0.617187 0,0 -2e-6,0 -2e-6,0 -0.752375,-0.01966 -1.490937,0.287284 -1.930996,0.474562 -0.475467,0.202351 -0.760229,0.330205 -0.797749,0.274174 z"
       id="path57" />
    <path
       style="display:inline;fill:#ffffff;fill-opacity:1;stroke:none;stroke-width:0.659657;stroke-linecap:square;stroke-linejoin:round;stroke-dasharray:none;stroke-opacity:1;paint-order:normal"
       d="m 91.751497,40.855894 c -0.04257,-0.05229 0.144439,-0.305097 0.561539,-0.652017 0.392354,-0.326339 1.097094,-0.807882 2.017566,-0.947491 0,0 3e-6,0 3e-6,0 0.681712,-0.09009 1.43314,0.07585 2.087252,0.518328 0.0322,0.02177 0.06386,0.04404 0.09506,0.06681 0.713537,0.523595 1.224843,1.220905 1.593684,1.785162 0.843746,1.280151 1.273007,2.197932 1.171133,2.267681 -0.101882,0.06975 -0.731334,-0.75936 -1.639183,-1.933661 -0.400616,-0.514304 -0.904273,-1.153396 -1.511649,-1.585726 -0.02543,-0.0182 -0.05117,-0.03604 -0.07728,-0.05354 -0.530238,-0.355225 -1.120868,-0.512669 -1.651031,-0.465341 0,0 0,0 0,0 -0.750933,0.05054 -1.457672,0.424983 -1.878361,0.652459 -0.45454,0.245781 -0.726147,0.39962 -0.768728,0.347329 z"
       id="path58" />
    <ellipse
       style="display:inline;fill:#ffffff;fill-opacity:1;stroke:none;stroke-width:0.674478;stroke-linecap:square;stroke-linejoin:round;stroke-dasharray:none;stroke-opacity:1;paint-order:normal"
       id="ellipse58"
       cx="21.370981"
       cy="-71.699974"
       rx="0.25807604"
       ry="0.88011444"
       transform="matrix(0.04530097,0.99897338,-0.96874652,-0.24805279,0,0)" />
    <path
       id="path64"
       style="display:inline;fill:#000000;fill-opacity:1;stroke:#000000;stroke-width:0.77395;stroke-linecap:round;stroke-linejoin:round;stroke-dasharray:none;stroke-opacity:1"
       d="m 91.087889,11.65952 c -0.0041,-8.59e-4 -0.01047,-3.8e-5 -0.01809,0.0015 -0.01603,0.0036 -0.04139,0.01373 -0.07131,0.02739 -0.295589,0.34565 -1.241692,1.248734 -2.141988,2.375566 l 0.111621,-0.679029 -0.662492,0.249597 c 0.06474,-0.06144 0.128405,-0.12334 0.192753,-0.185001 -0.09034,0.07776 -0.178658,0.155145 -0.261999,0.232027 -0.11492,0.105984 -0.222288,0.214035 -0.334347,0.320394 l 0.776697,-0.293006 -0.130741,0.796334 c 1.068177,-1.336957 2.192546,-2.406431 2.52491,-2.800862 0.02339,-0.02771 0.02775,-0.04231 0.01499,-0.04496 z" />
    <path
       style="display:inline;fill:#703d00;fill-opacity:1;stroke:#703d00;stroke-width:0.66;stroke-linecap:round;stroke-linejoin:round;stroke-dasharray:none;stroke-opacity:1"
       d="m 90.954887,11.702523 c -0.18646,0.04085 -1.55537,0.92913 -2.41639,1.723409 -0.098,0.09038 -0.18969,0.182152 -0.28525,0.272851 l 0.66249,-0.249597 -0.11162,0.679029 c 0.91091,-1.140116 1.86992,-2.052126 2.15335,-2.388485 0.0266,-0.03151 0.0241,-0.04304 -0.003,-0.03721 z"
       id="path59" />
  </g>
</svg>
